# This file uses centimeters as units for non-parametric coordinates.

mtllib Castle.mtl
g default
v -1.243300 -1.140500 0.000000
v -1.060000 -1.047000 0.000000
v 0.758000 1.454000 0.000000
v 0.843900 1.998000 0.000000
v 0.758000 1.454000 13.000000
v 0.047000 0.060000 13.000000
v 0.047000 0.060000 0.000000
v 12.841300 1.998000 13.000000
v 0.843900 1.998000 13.000000
v -1.060000 -1.047000 13.000000
v 4.505400 -11.510600 0.000000
v 12.841300 1.998000 0.000000
v 12.168000 -2.253000 0.000000
v 9.753000 -6.992000 0.000000
v 5.992000 -10.753000 0.000000
v -1.243300 -1.140500 13.000000
v 4.505400 -11.510600 13.000000
v 5.992000 -10.753000 13.000000
v 12.168000 -2.253000 13.000000
v 9.753000 -6.992000 13.000000
vt 0.101934 0.375589
vt 0.356150 0.367675
vt 0.106071 0.660646
vt 0.356181 0.665883
vt 0.063273 0.375779
vt 0.067100 0.660815
vt 0.032750 0.660970
vt 0.101538 0.660665
vt 0.029041 0.375942
vt 0.097448 0.375612
vt 0.016977 0.375998
vt 0.020677 0.661026
vt 0.615481 0.381191
vt 0.715862 0.365965
vt 0.719518 0.664274
vt 0.626395 0.649565
vt 0.480853 0.385327
vt 0.511612 0.646405
vt 0.398011 0.369247
vt 0.398903 0.664552
vt 0.981826 0.371710
vt 0.979183 0.656428
vt 0.494067 0.121398
vt 0.529060 0.128817
vt 0.490111 0.119235
vt 0.564681 0.125760
vt 0.575864 0.121340
vt 0.531583 0.903264
vt 0.567317 0.905963
vt 0.497029 0.909824
vt 0.578569 0.910279
vt 0.493093 0.912023
vn 0.000000 0.000000 -1.000000
vn 0.000000 0.000000 -1.000000
vn 0.000000 0.000000 -1.000000
vn 0.000000 0.000000 1.000000
vn 0.000000 0.000000 1.000000
vn 0.000000 0.000000 1.000000
vn 0.000000 0.000000 -1.000000
vn 0.000000 0.000000 -1.000000
vn 0.000000 0.000000 -1.000000
vn 0.000000 0.000000 -1.000000
vn 0.000000 0.000000 -1.000000
vn 0.000000 0.000000 -1.000000
vn 0.000000 0.000000 -1.000000
vn 0.000000 0.000000 -1.000000
vn 0.000000 0.000000 -1.000000
vn 0.000000 0.000000 -1.000000
vn 0.000000 0.000000 -1.000000
vn 0.000000 0.000000 -1.000000
vn 0.000000 0.000000 -1.000000
vn 0.000000 0.000000 -1.000000
vn 0.000000 0.000000 -1.000000
vn 0.000000 0.000000 -1.000000
vn 0.000000 0.000000 -1.000000
vn 0.000000 0.000000 -1.000000
vn -0.000000 0.000000 1.000000
vn -0.000000 0.000000 1.000000
vn -0.000000 0.000000 1.000000
vn 0.000000 0.000000 -1.000000
vn 0.000000 0.000000 -1.000000
vn 0.000000 0.000000 -1.000000
vn -0.874603 -0.484839 0.000000
vn -0.874603 -0.484839 0.000000
vn -0.874603 -0.484839 0.000000
vn -0.890820 0.454357 0.000000
vn -0.890820 0.454356 0.000000
vn -0.890820 0.454357 0.000000
vn 0.000000 0.000000 1.000000
vn 0.000000 0.000000 1.000000
vn 0.000000 0.000000 1.000000
vn -0.000001 0.000000 1.000000
vn -0.000001 0.000000 1.000000
vn -0.000001 0.000000 1.000000
vn -0.000002 0.000000 1.000000
vn -0.000002 0.000000 1.000000
vn -0.000002 0.000000 1.000000
vn 0.000000 0.000000 1.000000
vn 0.000000 0.000000 1.000000
vn 0.000000 0.000000 1.000000
vn 0.000000 1.000000 0.000000
vn 0.000000 1.000000 0.000000
vn 0.000000 1.000000 0.000000
vn 0.454057 -0.890973 0.000000
vn 0.454057 -0.890973 0.000000
vn 0.454057 -0.890973 0.000000
vn 0.454057 -0.890973 0.000000
vn 0.454057 -0.890973 0.000000
vn 0.454057 -0.890973 0.000000
vn -0.874603 -0.484839 0.000000
vn -0.874603 -0.484839 0.000000
vn -0.874603 -0.484839 0.000000
vn 0.000000 0.000000 1.000000
vn 0.000000 0.000000 1.000000
vn 0.000000 0.000000 1.000000
vn 0.000000 0.000000 1.000000
vn 0.000000 0.000000 1.000000
vn 0.000000 0.000000 1.000000
vn 0.707107 -0.707107 0.000000
vn 0.707107 -0.707107 0.000000
vn 0.707107 -0.707107 0.000000
vn 0.707107 -0.707107 0.000000
vn 0.707107 -0.707107 0.000000
vn 0.707107 -0.707107 0.000000
vn 0.987688 -0.156436 0.000000
vn 0.987688 -0.156436 0.000000
vn 0.987688 -0.156436 0.000000
vn 0.890979 -0.454044 0.000000
vn 0.890979 -0.454044 0.000000
vn 0.890979 -0.454044 0.000000
vn 0.890979 -0.454044 0.000000
vn 0.890979 -0.454044 0.000000
vn 0.890979 -0.454044 0.000000
vn -0.707107 0.707107 0.000000
vn -0.707107 0.707107 0.000000
vn -0.707107 0.707107 0.000000
vn -0.987761 0.155972 0.000000
vn -0.987761 0.155972 0.000000
vn -0.987761 0.155972 0.000000
vn -0.987761 0.155972 0.000000
vn -0.987761 0.155972 0.000000
vn -0.987761 0.155972 0.000000
vn 0.987688 -0.156436 0.000000
vn 0.987688 -0.156436 0.000000
vn 0.987688 -0.156436 0.000000
vn 0.000000 1.000000 0.000000
vn 0.000000 1.000000 0.000000
vn 0.000000 1.000000 0.000000
vn -0.890820 0.454357 0.000000
vn -0.890820 0.454356 0.000000
vn -0.890820 0.454357 0.000000
vn -0.707107 0.707107 0.000000
vn -0.707107 0.707107 0.000000
vn -0.707107 0.707107 0.000000
vn -0.454391 0.890802 0.000000
vn -0.454391 0.890802 0.000000
vn -0.454391 0.890802 0.000000
vn -0.454391 0.890802 0.000000
vn -0.454391 0.890802 0.000000
vn -0.454391 0.890802 0.000000
s off
g Castle:towerStone:group_0_undefined
usemtl Castle:texturedFacets1
f 14/17/1 15/19/2 2/23/3
f 6/28/4 20/18/5 5/29/6
f 7/24/7 3/26/8 14/17/9
f 4/27/10 12/14/11 3/26/12
f 13/13/13 3/26/14 12/14/15
f 13/13/16 14/17/17 3/26/18
f 1/25/19 2/23/20 11/2/21
f 11/2/22 2/23/23 15/19/24
f 18/20/25 10/30/26 17/4/27
f 7/24/28 14/17/29 2/23/30
f 1/1/31 11/2/32 16/3/33
f 7/5/34 6/6/35 5/7/36
f 5/29/37 8/15/38 9/31/39
f 16/32/40 17/4/41 10/30/42
f 10/30/43 18/20/44 6/28/45
f 8/15/46 5/29/47 19/16/48
f 4/21/49 9/22/50 12/14/51
f 17/4/52 11/2/53 15/19/54
f 17/4/55 15/19/56 18/20/57
f 17/4/58 16/3/59 11/2/60
f 18/20/61 20/18/62 6/28/63
f 19/16/64 5/29/65 20/18/66
f 15/19/67 14/17/68 20/18/69
f 15/19/70 20/18/71 18/20/72
f 13/13/73 12/14/74 8/15/75
f 14/17/76 13/13/77 19/16/78
f 14/17/79 19/16/80 20/18/81
f 2/10/82 10/8/83 7/5/84
f 3/9/85 5/7/86 4/11/87
f 9/12/88 4/11/89 5/7/90
f 8/15/91 19/16/92 13/13/93
f 8/15/94 12/14/95 9/22/96
f 5/7/97 3/9/98 7/5/99
f 6/6/100 7/5/101 10/8/102
f 10/8/103 2/10/104 1/1/105
f 10/8/106 1/1/107 16/3/108
g default
v -1.243300 -1.140500 -16.000000
v -1.060000 -1.047000 -16.000000
v 0.758000 1.454000 -16.000000
v 0.843900 1.998000 -16.000000
v 0.758000 1.454000 -3.000000
v 0.047000 0.060000 -3.000000
v 0.047000 0.060000 -16.000000
v 12.841300 1.998000 -3.000000
v 0.843900 1.998000 -3.000000
v -1.060000 -1.047000 -3.000000
v 4.505400 -11.510600 -16.000000
v 12.841300 1.998000 -16.000000
v 12.168000 -2.253000 -16.000000
v 9.753000 -6.992000 -16.000000
v 5.992000 -10.753000 -16.000000
v -1.243300 -1.140500 -3.000000
v 4.505400 -11.510600 -3.000000
v 5.992000 -10.753000 -3.000000
v 12.168000 -2.253000 -3.000000
v 9.753000 -6.992000 -3.000000
vt 0.101934 0.375589
vt 0.356150 0.367675
vt 0.106071 0.660646
vt 0.356181 0.665883
vt 0.063273 0.375779
vt 0.067100 0.660815
vt 0.032750 0.660970
vt 0.101538 0.660665
vt 0.029041 0.375942
vt 0.097448 0.375612
vt 0.016977 0.375998
vt 0.020677 0.661026
vt 0.615481 0.381191
vt 0.715862 0.365965
vt 0.719518 0.664274
vt 0.626395 0.649565
vt 0.480853 0.385327
vt 0.511612 0.646405
vt 0.398011 0.369247
vt 0.398903 0.664552
vt 0.981826 0.371710
vt 0.979183 0.656428
vt 0.494067 0.121398
vt 0.529060 0.128817
vt 0.490111 0.119235
vt 0.564681 0.125760
vt 0.575864 0.121340
vt 0.531583 0.903264
vt 0.567317 0.905963
vt 0.497029 0.909824
vt 0.578569 0.910279
vt 0.493093 0.912023
vn 0.000000 0.000000 -1.000000
vn 0.000000 0.000000 -1.000000
vn 0.000000 0.000000 -1.000000
vn 0.000000 0.000000 1.000000
vn 0.000000 0.000000 1.000000
vn 0.000000 0.000000 1.000000
vn 0.000000 0.000000 -1.000000
vn 0.000000 0.000000 -1.000000
vn 0.000000 0.000000 -1.000000
vn 0.000000 0.000000 -1.000000
vn 0.000000 0.000000 -1.000000
vn 0.000000 0.000000 -1.000000
vn 0.000000 0.000000 -1.000000
vn 0.000000 0.000000 -1.000000
vn 0.000000 0.000000 -1.000000
vn 0.000000 0.000000 -1.000000
vn 0.000000 0.000000 -1.000000
vn 0.000000 0.000000 -1.000000
vn 0.000000 0.000000 -1.000000
vn 0.000000 0.000000 -1.000000
vn 0.000000 0.000000 -1.000000
vn 0.000000 0.000000 -1.000000
vn 0.000000 0.000000 -1.000000
vn 0.000000 0.000000 -1.000000
vn -0.000000 0.000000 1.000000
vn -0.000000 0.000000 1.000000
vn -0.000000 0.000000 1.000000
vn 0.000000 0.000000 -1.000000
vn 0.000000 0.000000 -1.000000
vn 0.000000 0.000000 -1.000000
vn -0.874603 -0.484839 0.000000
vn -0.874603 -0.484839 0.000000
vn -0.874603 -0.484839 0.000000
vn -0.890820 0.454357 0.000000
vn -0.890820 0.454356 0.000000
vn -0.890820 0.454357 0.000000
vn 0.000000 0.000000 1.000000
vn 0.000000 0.000000 1.000000
vn 0.000000 0.000000 1.000000
vn -0.000001 0.000000 1.000000
vn -0.000001 0.000000 1.000000
vn -0.000001 0.000000 1.000000
vn -0.000002 0.000000 1.000000
vn -0.000002 0.000000 1.000000
vn -0.000002 0.000000 1.000000
vn 0.000000 0.000000 1.000000
vn 0.000000 0.000000 1.000000
vn 0.000000 0.000000 1.000000
vn 0.000000 1.000000 0.000000
vn 0.000000 1.000000 0.000000
vn 0.000000 1.000000 0.000000
vn 0.454057 -0.890973 0.000000
vn 0.454057 -0.890973 0.000000
vn 0.454057 -0.890973 0.000000
vn 0.454057 -0.890973 0.000000
vn 0.454057 -0.890973 0.000000
vn 0.454057 -0.890973 0.000000
vn -0.874603 -0.484839 0.000000
vn -0.874603 -0.484839 0.000000
vn -0.874603 -0.484839 0.000000
vn 0.000000 0.000000 1.000000
vn 0.000000 0.000000 1.000000
vn 0.000000 0.000000 1.000000
vn 0.000000 0.000000 1.000000
vn 0.000000 0.000000 1.000000
vn 0.000000 0.000000 1.000000
vn 0.707107 -0.707107 0.000000
vn 0.707107 -0.707107 0.000000
vn 0.707107 -0.707107 0.000000
vn 0.707107 -0.707107 0.000000
vn 0.707107 -0.707107 0.000000
vn 0.707107 -0.707107 0.000000
vn 0.987688 -0.156436 0.000000
vn 0.987688 -0.156436 0.000000
vn 0.987688 -0.156436 0.000000
vn 0.890979 -0.454044 0.000000
vn 0.890979 -0.454044 0.000000
vn 0.890979 -0.454044 0.000000
vn 0.890979 -0.454044 0.000000
vn 0.890979 -0.454044 0.000000
vn 0.890979 -0.454044 0.000000
vn -0.707107 0.707107 0.000000
vn -0.707107 0.707107 0.000000
vn -0.707107 0.707107 0.000000
vn -0.987761 0.155972 0.000000
vn -0.987761 0.155972 0.000000
vn -0.987761 0.155972 0.000000
vn -0.987761 0.155972 0.000000
vn -0.987761 0.155972 0.000000
vn -0.987761 0.155972 0.000000
vn 0.987688 -0.156436 0.000000
vn 0.987688 -0.156436 0.000000
vn 0.987688 -0.156436 0.000000
vn 0.000000 1.000000 0.000000
vn 0.000000 1.000000 0.000000
vn 0.000000 1.000000 0.000000
vn -0.890820 0.454357 0.000000
vn -0.890820 0.454356 0.000000
vn -0.890820 0.454357 0.000000
vn -0.707107 0.707107 0.000000
vn -0.707107 0.707107 0.000000
vn -0.707107 0.707107 0.000000
vn -0.454391 0.890802 0.000000
vn -0.454391 0.890802 0.000000
vn -0.454391 0.890802 0.000000
vn -0.454391 0.890802 0.000000
vn -0.454391 0.890802 0.000000
vn -0.454391 0.890802 0.000000
s off
g Castle2:Castle:towerStone:group_0_undefined
usemtl Castle2:Castle:texturedFacets1
f 34/49/109 35/51/110 22/55/111
f 26/60/112 40/50/113 25/61/114
f 27/56/115 23/58/116 34/49/117
f 24/59/118 32/46/119 23/58/120
f 33/45/121 23/58/122 32/46/123
f 33/45/124 34/49/125 23/58/126
f 21/57/127 22/55/128 31/34/129
f 31/34/130 22/55/131 35/51/132
f 38/52/133 30/62/134 37/36/135
f 27/56/136 34/49/137 22/55/138
f 21/33/139 31/34/140 36/35/141
f 27/37/142 26/38/143 25/39/144
f 25/61/145 28/47/146 29/63/147
f 36/64/148 37/36/149 30/62/150
f 30/62/151 38/52/152 26/60/153
f 28/47/154 25/61/155 39/48/156
f 24/53/157 29/54/158 32/46/159
f 37/36/160 31/34/161 35/51/162
f 37/36/163 35/51/164 38/52/165
f 37/36/166 36/35/167 31/34/168
f 38/52/169 40/50/170 26/60/171
f 39/48/172 25/61/173 40/50/174
f 35/51/175 34/49/176 40/50/177
f 35/51/178 40/50/179 38/52/180
f 33/45/181 32/46/182 28/47/183
f 34/49/184 33/45/185 39/48/186
f 34/49/187 39/48/188 40/50/189
f 22/42/190 30/40/191 27/37/192
f 23/41/193 25/39/194 24/43/195
f 29/44/196 24/43/197 25/39/198
f 28/47/199 39/48/200 33/45/201
f 28/47/202 32/46/203 29/54/204
f 25/39/205 23/41/206 27/37/207
f 26/38/208 27/37/209 30/40/210
f 30/40/211 22/42/212 21/33/213
f 30/40/214 21/33/215 36/35/216
g default
v -1.243300 -1.140500 -32.000000
v -1.060000 -1.047000 -32.000000
v 0.758000 1.454000 -32.000000
v 0.843900 1.998000 -32.000000
v 0.758000 1.454000 -19.000000
v 0.047000 0.060000 -19.000000
v 0.047000 0.060000 -32.000000
v 12.841300 1.998000 -19.000000
v 0.843900 1.998000 -19.000000
v -1.060000 -1.047000 -19.000000
v 4.505400 -11.510600 -32.000000
v 12.841300 1.998000 -32.000000
v 12.168000 -2.253000 -32.000000
v 9.753000 -6.992000 -32.000000
v 5.992000 -10.753000 -32.000000
v -1.243300 -1.140500 -19.000000
v 4.505400 -11.510600 -19.000000
v 5.992000 -10.753000 -19.000000
v 12.168000 -2.253000 -19.000000
v 9.753000 -6.992000 -19.000000
vt 0.101934 0.375589
vt 0.356150 0.367675
vt 0.106071 0.660646
vt 0.356181 0.665883
vt 0.063273 0.375779
vt 0.067100 0.660815
vt 0.032750 0.660970
vt 0.101538 0.660665
vt 0.029041 0.375942
vt 0.097448 0.375612
vt 0.016977 0.375998
vt 0.020677 0.661026
vt 0.615481 0.381191
vt 0.715862 0.365965
vt 0.719518 0.664274
vt 0.626395 0.649565
vt 0.480853 0.385327
vt 0.511612 0.646405
vt 0.398011 0.369247
vt 0.398903 0.664552
vt 0.981826 0.371710
vt 0.979183 0.656428
vt 0.494067 0.121398
vt 0.529060 0.128817
vt 0.490111 0.119235
vt 0.564681 0.125760
vt 0.575864 0.121340
vt 0.531583 0.903264
vt 0.567317 0.905963
vt 0.497029 0.909824
vt 0.578569 0.910279
vt 0.493093 0.912023
vn 0.000000 0.000000 -1.000000
vn 0.000000 0.000000 -1.000000
vn 0.000000 0.000000 -1.000000
vn 0.000000 0.000000 1.000000
vn 0.000000 0.000000 1.000000
vn 0.000000 0.000000 1.000000
vn 0.000000 0.000000 -1.000000
vn 0.000000 0.000000 -1.000000
vn 0.000000 0.000000 -1.000000
vn 0.000000 0.000000 -1.000000
vn 0.000000 0.000000 -1.000000
vn 0.000000 0.000000 -1.000000
vn 0.000000 0.000000 -1.000000
vn 0.000000 0.000000 -1.000000
vn 0.000000 0.000000 -1.000000
vn 0.000000 0.000000 -1.000000
vn 0.000000 0.000000 -1.000000
vn 0.000000 0.000000 -1.000000
vn 0.000000 0.000000 -1.000000
vn 0.000000 0.000000 -1.000000
vn 0.000000 0.000000 -1.000000
vn 0.000000 0.000000 -1.000000
vn 0.000000 0.000000 -1.000000
vn 0.000000 0.000000 -1.000000
vn -0.000000 0.000000 1.000000
vn -0.000000 0.000000 1.000000
vn -0.000000 0.000000 1.000000
vn 0.000000 0.000000 -1.000000
vn 0.000000 0.000000 -1.000000
vn 0.000000 0.000000 -1.000000
vn -0.874603 -0.484839 0.000000
vn -0.874603 -0.484839 0.000000
vn -0.874603 -0.484839 0.000000
vn -0.890820 0.454357 0.000000
vn -0.890820 0.454356 0.000000
vn -0.890820 0.454357 0.000000
vn 0.000000 0.000000 1.000000
vn 0.000000 0.000000 1.000000
vn 0.000000 0.000000 1.000000
vn -0.000001 0.000000 1.000000
vn -0.000001 0.000000 1.000000
vn -0.000001 0.000000 1.000000
vn -0.000002 0.000000 1.000000
vn -0.000002 0.000000 1.000000
vn -0.000002 0.000000 1.000000
vn 0.000000 0.000000 1.000000
vn 0.000000 0.000000 1.000000
vn 0.000000 0.000000 1.000000
vn 0.000000 1.000000 0.000000
vn 0.000000 1.000000 0.000000
vn 0.000000 1.000000 0.000000
vn 0.454057 -0.890973 0.000000
vn 0.454057 -0.890973 0.000000
vn 0.454057 -0.890973 0.000000
vn 0.454057 -0.890973 0.000000
vn 0.454057 -0.890973 0.000000
vn 0.454057 -0.890973 0.000000
vn -0.874603 -0.484839 0.000000
vn -0.874603 -0.484839 0.000000
vn -0.874603 -0.484839 0.000000
vn 0.000000 0.000000 1.000000
vn 0.000000 0.000000 1.000000
vn 0.000000 0.000000 1.000000
vn 0.000000 0.000000 1.000000
vn 0.000000 0.000000 1.000000
vn 0.000000 0.000000 1.000000
vn 0.707107 -0.707107 0.000000
vn 0.707107 -0.707107 0.000000
vn 0.707107 -0.707107 0.000000
vn 0.707107 -0.707107 0.000000
vn 0.707107 -0.707107 0.000000
vn 0.707107 -0.707107 0.000000
vn 0.987688 -0.156436 0.000000
vn 0.987688 -0.156436 0.000000
vn 0.987688 -0.156436 0.000000
vn 0.890979 -0.454044 0.000000
vn 0.890979 -0.454044 0.000000
vn 0.890979 -0.454044 0.000000
vn 0.890979 -0.454044 0.000000
vn 0.890979 -0.454044 0.000000
vn 0.890979 -0.454044 0.000000
vn -0.707107 0.707107 0.000000
vn -0.707107 0.707107 0.000000
vn -0.707107 0.707107 0.000000
vn -0.987761 0.155972 0.000000
vn -0.987761 0.155972 0.000000
vn -0.987761 0.155972 0.000000
vn -0.987761 0.155972 0.000000
vn -0.987761 0.155972 0.000000
vn -0.987761 0.155972 0.000000
vn 0.987688 -0.156436 0.000000
vn 0.987688 -0.156436 0.000000
vn 0.987688 -0.156436 0.000000
vn 0.000000 1.000000 0.000000
vn 0.000000 1.000000 0.000000
vn 0.000000 1.000000 0.000000
vn -0.890820 0.454357 0.000000
vn -0.890820 0.454356 0.000000
vn -0.890820 0.454357 0.000000
vn -0.707107 0.707107 0.000000
vn -0.707107 0.707107 0.000000
vn -0.707107 0.707107 0.000000
vn -0.454391 0.890802 0.000000
vn -0.454391 0.890802 0.000000
vn -0.454391 0.890802 0.000000
vn -0.454391 0.890802 0.000000
vn -0.454391 0.890802 0.000000
vn -0.454391 0.890802 0.000000
s off
g Castle3:Castle:towerStone:group_0_undefined
usemtl Castle3:Castle:texturedFacets1
f 54/81/217 55/83/218 42/87/219
f 46/92/220 60/82/221 45/93/222
f 47/88/223 43/90/224 54/81/225
f 44/91/226 52/78/227 43/90/228
f 53/77/229 43/90/230 52/78/231
f 53/77/232 54/81/233 43/90/234
f 41/89/235 42/87/236 51/66/237
f 51/66/238 42/87/239 55/83/240
f 58/84/241 50/94/242 57/68/243
f 47/88/244 54/81/245 42/87/246
f 41/65/247 51/66/248 56/67/249
f 47/69/250 46/70/251 45/71/252
f 45/93/253 48/79/254 49/95/255
f 56/96/256 57/68/257 50/94/258
f 50/94/259 58/84/260 46/92/261
f 48/79/262 45/93/263 59/80/264
f 44/85/265 49/86/266 52/78/267
f 57/68/268 51/66/269 55/83/270
f 57/68/271 55/83/272 58/84/273
f 57/68/274 56/67/275 51/66/276
f 58/84/277 60/82/278 46/92/279
f 59/80/280 45/93/281 60/82/282
f 55/83/283 54/81/284 60/82/285
f 55/83/286 60/82/287 58/84/288
f 53/77/289 52/78/290 48/79/291
f 54/81/292 53/77/293 59/80/294
f 54/81/295 59/80/296 60/82/297
f 42/74/298 50/72/299 47/69/300
f 43/73/301 45/71/302 44/75/303
f 49/76/304 44/75/305 45/71/306
f 48/79/307 59/80/308 53/77/309
f 48/79/310 52/78/311 49/86/312
f 45/71/313 43/73/314 47/69/315
f 46/70/316 47/69/317 50/72/318
f 50/72/319 42/74/320 41/65/321
f 50/72/322 41/65/323 56/67/324
