# This file uses centimeters as units for non-parametric coordinates.

mtllib GrassMiniBend.mtl
g skinCluster1Set tweakSet1
v -0.892222 0.014994 0.171833
v 0.000000 0.014396 0.168837
v 0.892222 0.014994 0.171833
v -1.500000 2.469036 0.040211
v 0.000000 2.468968 0.039950
v 1.500000 2.469036 0.040211
v -1.616667 12.107620 -1.575805
v 0.000000 12.107544 -1.576261
v 1.616667 12.107620 -1.575805
v -1.662222 25.270908 -5.032415
v 0.000000 25.270790 -5.032790
v 1.662222 25.270908 -5.032415
v -1.533333 36.011189 -8.851994
v 0.000000 36.011074 -8.852283
v 1.533333 36.011189 -8.851994
v -1.366255 47.372051 -13.997548
v 0.000000 47.371956 -13.997723
v 1.366255 47.372051 -13.997548
v -1.196296 57.505592 -19.711525
v 0.000000 57.505516 -19.711641
v 1.196296 57.505592 -19.711525
v -0.786667 66.322586 -25.700808
v 0.000000 66.322578 -25.700823
v 0.786667 66.322586 -25.700808
v -0.103889 74.490257 -32.421864
v 0.000000 74.490257 -32.421864
v 0.103889 74.490257 -32.421864
v -0.103889 74.346954 -32.598915
v 0.000000 74.346954 -32.598915
v 0.103889 74.346954 -32.598915
v -0.786667 66.084595 -26.021856
v 0.000000 66.084587 -26.021872
v 0.786667 66.084595 -26.021856
v -1.196296 57.281162 -20.075247
v 0.000000 57.281090 -20.075363
v 1.196296 57.281162 -20.075247
v -1.366255 47.146790 -14.443425
v 0.000000 47.146698 -14.443602
v 1.366255 47.146790 -14.443425
v -1.533333 35.824627 -9.315396
v 0.000000 35.824509 -9.315685
v 1.533333 35.824627 -9.315396
v -1.662222 25.114613 -5.541826
v 0.000000 25.114498 -5.542204
v 1.662222 25.114613 -5.541826
v -1.616667 11.985817 -2.140062
v 0.000000 11.985722 -2.140516
v 1.616667 11.985817 -2.140062
v -1.500000 2.405457 -0.455273
v 0.000000 2.405407 -0.455538
v 1.500000 2.405457 -0.455273
v -0.892222 -0.014210 -0.165778
v 0.000000 -0.014394 -0.168827
v 0.892222 -0.014210 -0.165778
vt 0.350105 0.112479
vt 0.353725 0.111390
vt 0.362119 0.153810
vt 0.357208 0.154512
vt 0.364395 0.252046
vt 0.358627 0.252093
vt 0.362550 0.387930
vt 0.357228 0.387816
vt 0.358423 0.501500
vt 0.353432 0.501364
vt 0.355913 0.625840
vt 0.350925 0.625665
vt 0.349812 0.741802
vt 0.345546 0.741565
vt 0.343259 0.848184
vt 0.339295 0.847731
vt 0.330343 0.952897
vt 0.325167 0.952523
vt 0.325185 0.114300
vt 0.329328 0.114465
vt 0.328089 0.156183
vt 0.323293 0.155976
vt 0.326197 0.251946
vt 0.320388 0.251834
vt 0.324055 0.387266
vt 0.318733 0.387202
vt 0.322782 0.500789
vt 0.317781 0.500736
vt 0.321379 0.625006
vt 0.316394 0.624961
vt 0.320235 0.740792
vt 0.315957 0.740770
vt 0.319735 0.846673
vt 0.315755 0.846696
vt 0.320384 0.952369
vt 0.315119 0.952405
vt 0.322776 0.952446
vt 0.322385 0.958996
vt 0.319997 0.958919
vt 0.324772 0.959074
vt 0.327637 0.093407
vt 0.338022 0.092356
vt 0.339797 0.113421
vt 0.348291 0.091399
vt 0.342483 0.155122
vt 0.342453 0.252075
vt 0.340642 0.387546
vt 0.338112 0.501074
vt 0.336150 0.625335
vt 0.332897 0.741173
vt 0.329505 0.847202
vt 0.312735 0.952515
vt 0.305994 0.847338
vt 0.310351 0.952625
vt 0.296200 0.847982
vt 0.303294 0.741020
vt 0.290648 0.741274
vt 0.301614 0.625016
vt 0.286830 0.625073
vt 0.302453 0.500703
vt 0.287138 0.500670
vt 0.302135 0.387086
vt 0.285536 0.386966
vt 0.304142 0.251342
vt 0.288032 0.250817
vt 0.309025 0.153680
vt 0.294257 0.151725
vt 0.314985 0.112198
vt 0.305018 0.110088
vn 0.001374 0.053167 0.998585
vn 0.000000 0.053167 0.998586
vn 0.000000 0.147339 0.989086
vn 0.000394 0.149838 0.988711
vn -0.001374 0.053167 0.998585
vn -0.000394 0.149838 0.988711
vn 0.000000 0.218249 0.975893
vn 0.000250 0.218456 0.975847
vn -0.000250 0.218456 0.975847
vn 0.000000 0.290684 0.956819
vn 0.000242 0.290581 0.956850
vn -0.000242 0.290581 0.956850
vn 0.000000 0.374005 0.927427
vn 0.000199 0.373700 0.927550
vn -0.000199 0.373700 0.927550
vn 0.000000 0.448515 0.893776
vn 0.000158 0.448167 0.893950
vn -0.000158 0.448167 0.893950
vn 0.000000 0.520948 0.853589
vn 0.000112 0.520362 0.853946
vn -0.000112 0.520362 0.853946
vn 0.000000 0.585089 0.810969
vn 0.000062 0.584052 0.811716
vn -0.000062 0.584052 0.811716
vn -0.000000 0.635410 0.772175
vn 0.000019 0.635410 0.772175
vn -0.000019 0.635410 0.772175
vn 0.000000 0.777292 -0.629140
vn 0.000000 0.777292 -0.629140
vn 0.000000 0.777292 -0.629140
vn 0.000000 0.777292 -0.629140
vn 0.000000 0.777292 -0.629140
vn 0.000000 0.777292 -0.629140
vn -0.000019 -0.622797 -0.782384
vn 0.000000 -0.622797 -0.782384
vn 0.000000 -0.579584 -0.814913
vn -0.000061 -0.578694 -0.815545
vn 0.000019 -0.622797 -0.782384
vn 0.000061 -0.578694 -0.815545
vn -0.000000 -0.516920 -0.856034
vn -0.000109 -0.516305 -0.856405
vn 0.000109 -0.516305 -0.856405
vn -0.000000 -0.446007 -0.895030
vn -0.000156 -0.445682 -0.895192
vn 0.000156 -0.445682 -0.895192
vn 0.000000 -0.372652 -0.927971
vn -0.000199 -0.372335 -0.928098
vn 0.000199 -0.372335 -0.928098
vn 0.000000 -0.287697 -0.957722
vn -0.000244 -0.287593 -0.957753
vn 0.000244 -0.287593 -0.957753
vn 0.000000 -0.219527 -0.975606
vn -0.000251 -0.219710 -0.975565
vn 0.000251 -0.219710 -0.975565
vn 0.000000 -0.164406 -0.986393
vn -0.000395 -0.165636 -0.986187
vn 0.000395 -0.165636 -0.986187
vn 0.000000 -0.118401 -0.992966
vn -0.001387 -0.118401 -0.992965
vn 0.001387 -0.118401 -0.992965
vn -0.000147 -0.996332 0.085567
vn 0.000000 -0.996332 0.085567
vn 0.000000 -0.996332 0.085567
vn -0.000147 -0.996332 0.085567
vn 0.000147 -0.996332 0.085567
vn 0.000147 -0.996332 0.085567
vn 0.970470 -0.239739 0.026700
vn 0.970470 -0.239739 0.026700
vn 0.998759 -0.049417 0.006132
vn 0.998756 -0.049476 0.006138
vn 0.999976 -0.006748 0.001341
vn 0.999976 -0.006748 0.001341
vn 0.999995 0.002847 -0.001174
vn 0.999995 0.002846 -0.001174
vn 0.999923 0.011475 -0.004676
vn 0.999923 0.011475 -0.004676
vn 0.999902 0.012487 -0.006263
vn 0.999902 0.012487 -0.006263
vn 0.999679 0.021368 -0.013586
vn 0.999679 0.021368 -0.013585
vn 0.998769 0.040169 -0.029106
vn 0.998769 0.040168 -0.029105
vn 0.997918 0.051211 -0.039202
vn 0.997918 0.051211 -0.039202
vn -0.970470 -0.239739 0.026700
vn -0.970470 -0.239739 0.026700
vn -0.998756 -0.049476 0.006138
vn -0.998759 -0.049417 0.006132
vn -0.999976 -0.006748 0.001341
vn -0.999976 -0.006748 0.001341
vn -0.999995 0.002846 -0.001174
vn -0.999995 0.002847 -0.001174
vn -0.999923 0.011475 -0.004676
vn -0.999923 0.011475 -0.004676
vn -0.999902 0.012487 -0.006263
vn -0.999902 0.012487 -0.006263
vn -0.999679 0.021368 -0.013585
vn -0.999679 0.021368 -0.013586
vn -0.998769 0.040168 -0.029105
vn -0.998769 0.040169 -0.029106
vn -0.997918 0.051211 -0.039202
vn -0.997918 0.051211 -0.039202
s 1
g pCube1
usemtl initialShadingGroup
f 1/20/1 2/43/2 5/45/3 4/21/4
f 2/43/2 3/1/5 6/4/6 5/45/3
f 4/21/4 5/45/3 8/46/7 7/23/8
f 5/45/3 6/4/6 9/6/9 8/46/7
f 7/23/8 8/46/7 11/47/10 10/25/11
f 8/46/7 9/6/9 12/8/12 11/47/10
f 10/25/11 11/47/10 14/48/13 13/27/14
f 11/47/10 12/8/12 15/10/15 14/48/13
f 13/27/14 14/48/13 17/49/16 16/29/17
f 14/48/13 15/10/15 18/12/18 17/49/16
f 16/29/17 17/49/16 20/50/19 19/31/20
f 17/49/16 18/12/18 21/14/21 20/50/19
f 19/31/20 20/50/19 23/51/22 22/33/23
f 20/50/19 21/14/21 24/16/24 23/51/22
f 22/33/23 23/51/22 26/37/25 25/35/26
f 23/51/22 24/16/24 27/18/27 26/37/25
s 2
f 25/35/28 26/37/29 29/38/30 28/39/31
f 26/37/29 27/18/32 30/40/33 29/38/30
s 3
f 28/36/34 29/52/35 32/53/36 31/34/37
f 29/52/35 30/54/38 33/55/39 32/53/36
f 31/34/37 32/53/36 35/56/40 34/32/41
f 32/53/36 33/55/39 36/57/42 35/56/40
f 34/32/41 35/56/40 38/58/43 37/30/44
f 35/56/40 36/57/42 39/59/45 38/58/43
f 37/30/44 38/58/43 41/60/46 40/28/47
f 38/58/43 39/59/45 42/61/48 41/60/46
f 40/28/47 41/60/46 44/62/49 43/26/50
f 41/60/46 42/61/48 45/63/51 44/62/49
f 43/26/50 44/62/49 47/64/52 46/24/53
f 44/62/49 45/63/51 48/65/54 47/64/52
f 46/24/53 47/64/52 50/66/55 49/22/56
f 47/64/52 48/65/54 51/67/57 50/66/55
f 49/22/56 50/66/55 53/68/58 52/19/59
f 50/66/55 51/67/57 54/69/60 53/68/58
s 4
f 52/41/61 53/42/62 2/43/63 1/20/64
f 53/42/62 54/44/65 3/1/66 2/43/63
s 5
f 3/1/67 54/2/68 51/3/69 6/4/70
f 6/4/70 51/3/69 48/5/71 9/6/72
f 9/6/72 48/5/71 45/7/73 12/8/74
f 12/8/74 45/7/73 42/9/75 15/10/76
f 15/10/76 42/9/75 39/11/77 18/12/78
f 18/12/78 39/11/77 36/13/79 21/14/80
f 21/14/80 36/13/79 33/15/81 24/16/82
f 24/16/82 33/15/81 30/17/83 27/18/84
s 6
f 52/19/85 1/20/86 4/21/87 49/22/88
f 49/22/88 4/21/87 7/23/89 46/24/90
f 46/24/90 7/23/89 10/25/91 43/26/92
f 43/26/92 10/25/91 13/27/93 40/28/94
f 40/28/94 13/27/93 16/29/95 37/30/96
f 37/30/96 16/29/95 19/31/97 34/32/98
f 34/32/98 19/31/97 22/33/99 31/34/100
f 31/34/100 22/33/99 25/35/101 28/36/102
