# This file uses centimeters as units for non-parametric coordinates.

mtllib GrassSmallBend.mtl
g skinCluster1Set tweakSet1
v -0.892222 0.036308 0.172761
v 0.000000 0.033700 0.166071
v 0.892222 0.036308 0.172761
v -1.500000 2.471093 -0.248272
v 0.000000 2.470757 -0.248809
v 1.500000 2.471093 -0.248272
v -1.616667 11.514540 -4.033715
v 0.000000 11.514110 -4.034690
v 1.616667 11.514540 -4.033715
v -1.662222 22.756207 -11.761208
v 0.000000 22.755610 -11.761888
v 1.662222 22.756207 -11.761208
v -1.533333 30.700237 -19.977634
v 0.000000 30.699677 -19.978077
v 1.533333 30.700237 -19.977634
v -1.366255 37.443596 -30.503178
v 0.000000 37.443176 -30.503359
v 1.366255 37.443596 -30.503178
v -1.196296 41.622272 -41.388649
v 0.000000 41.621964 -41.388721
v 1.196296 41.622272 -41.388649
v -0.786667 43.409519 -51.920506
v 0.000000 43.409477 -51.920517
v 0.786667 43.409519 -51.920506
v -0.103889 42.999462 -62.501446
v 0.000000 42.999462 -62.501446
v 0.103889 42.999462 -62.501446
v -0.103889 42.771793 -62.494434
v 0.000000 42.771793 -62.494434
v 0.103889 42.771793 -62.494434
v -0.786667 43.012478 -51.948071
v 0.000000 43.012436 -51.948082
v 0.786667 43.012478 -51.948071
v -1.196296 41.212002 -41.501972
v 0.000000 41.211693 -41.502048
v 1.196296 41.212002 -41.501972
v -1.366255 36.999977 -30.728352
v 0.000000 36.999557 -30.728540
v 1.366255 36.999977 -30.728352
v -1.533333 30.310266 -20.286535
v 0.000000 30.309698 -20.286980
v 1.533333 30.310266 -20.286535
v -1.662222 22.414055 -12.166829
v 0.000000 22.413465 -12.167524
v 1.662222 22.414055 -12.166829
v -1.616667 11.238721 -4.538099
v 0.000000 11.238245 -4.539063
v 1.616667 11.238721 -4.538099
v -1.500000 2.323891 -0.723486
v 0.000000 2.323595 -0.724042
v 1.500000 2.323891 -0.723486
v -0.892222 -0.032024 -0.159068
v 0.000000 -0.033694 -0.166049
v 0.892222 -0.032024 -0.159068
vt 0.350105 0.112479
vt 0.353725 0.111390
vt 0.362119 0.153810
vt 0.357208 0.154512
vt 0.364395 0.252046
vt 0.358627 0.252093
vt 0.362550 0.387930
vt 0.357228 0.387816
vt 0.358423 0.501500
vt 0.353432 0.501364
vt 0.355913 0.625840
vt 0.350925 0.625665
vt 0.349812 0.741802
vt 0.345546 0.741565
vt 0.343259 0.848184
vt 0.339295 0.847731
vt 0.330343 0.952897
vt 0.325167 0.952523
vt 0.325185 0.114300
vt 0.329328 0.114465
vt 0.328089 0.156183
vt 0.323293 0.155976
vt 0.326197 0.251946
vt 0.320388 0.251834
vt 0.324055 0.387266
vt 0.318733 0.387202
vt 0.322782 0.500789
vt 0.317781 0.500736
vt 0.321379 0.625006
vt 0.316394 0.624961
vt 0.320235 0.740792
vt 0.315957 0.740770
vt 0.319735 0.846673
vt 0.315755 0.846696
vt 0.320384 0.952369
vt 0.315119 0.952405
vt 0.322776 0.952446
vt 0.322385 0.958996
vt 0.319997 0.958919
vt 0.324772 0.959074
vt 0.327637 0.093407
vt 0.338022 0.092356
vt 0.339797 0.113421
vt 0.348291 0.091399
vt 0.342483 0.155122
vt 0.342453 0.252075
vt 0.340642 0.387546
vt 0.338112 0.501074
vt 0.336150 0.625335
vt 0.332897 0.741173
vt 0.329505 0.847202
vt 0.312735 0.952515
vt 0.305994 0.847338
vt 0.310351 0.952625
vt 0.296200 0.847982
vt 0.303294 0.741020
vt 0.290648 0.741274
vt 0.301614 0.625016
vt 0.286830 0.625073
vt 0.302453 0.500703
vt 0.287138 0.500670
vt 0.302135 0.387086
vt 0.285536 0.386966
vt 0.304142 0.251342
vt 0.288032 0.250817
vt 0.309025 0.153680
vt 0.294257 0.151725
vt 0.314985 0.112198
vt 0.305018 0.110088
vn 0.003186 0.169494 0.985526
vn 0.000000 0.169495 0.985531
vn 0.000000 0.352239 0.935910
vn 0.000915 0.356953 0.934122
vn -0.003186 0.169494 0.985526
vn -0.000915 0.356953 0.934122
vn 0.000000 0.495812 0.868430
vn 0.000576 0.496226 0.868193
vn -0.000576 0.496226 0.868193
vn 0.000000 0.638148 0.769914
vn 0.000556 0.637955 0.770074
vn -0.000556 0.637955 0.770074
vn 0.000000 0.784098 0.620636
vn 0.000456 0.783613 0.621250
vn -0.000456 0.783613 0.621250
vn 0.000000 0.887922 0.459994
vn 0.000358 0.887510 0.460789
vn -0.000358 0.887510 0.460789
vn 0.000000 0.959865 0.280464
vn 0.000253 0.959405 0.282032
vn -0.000253 0.959405 0.282032
vn 0.000000 0.994543 0.104327
vn 0.000142 0.994239 0.107189
vn -0.000142 0.994239 0.107189
vn 0.000000 0.999250 -0.038722
vn 0.000047 0.999250 -0.038722
vn -0.000047 0.999250 -0.038722
vn 0.000000 -0.030782 -0.999526
vn 0.000000 -0.030782 -0.999526
vn 0.000000 -0.030782 -0.999526
vn 0.000000 -0.030782 -0.999526
vn 0.000000 -0.030782 -0.999526
vn 0.000000 -0.030782 -0.999526
vn -0.000047 -0.999740 0.022812
vn 0.000000 -0.999740 0.022812
vn 0.000000 -0.993843 -0.110795
vn -0.000143 -0.993539 -0.113488
vn 0.000047 -0.999740 0.022812
vn 0.000143 -0.993539 -0.113488
vn 0.000000 -0.958545 -0.284941
vn -0.000255 -0.958066 -0.286548
vn 0.000255 -0.958066 -0.286548
vn 0.000000 -0.886642 -0.462458
vn -0.000361 -0.886236 -0.463234
vn 0.000361 -0.886236 -0.463234
vn 0.000000 -0.783227 -0.621736
vn -0.000460 -0.782729 -0.622363
vn 0.000460 -0.782729 -0.622363
vn 0.000000 -0.635735 -0.771908
vn -0.000563 -0.635538 -0.772069
vn 0.000563 -0.635538 -0.772069
vn 0.000000 -0.497031 -0.867733
vn -0.000582 -0.497428 -0.867505
vn 0.000582 -0.497428 -0.867505
vn 0.000000 -0.368172 -0.929758
vn -0.000922 -0.371742 -0.928336
vn 0.000922 -0.371742 -0.928336
vn 0.000000 -0.232061 -0.972701
vn -0.003255 -0.232060 -0.972696
vn 0.003255 -0.232060 -0.972696
vn -0.000814 -0.979738 0.200281
vn 0.000000 -0.979738 0.200281
vn 0.000000 -0.979738 0.200281
vn -0.000814 -0.979738 0.200281
vn 0.000814 -0.979738 0.200281
vn 0.000814 -0.979738 0.200281
vn 0.970382 -0.233396 0.062332
vn 0.970382 -0.233396 0.062332
vn 0.998756 -0.047780 0.014278
vn 0.998749 -0.047917 0.014313
vn 0.999976 -0.006141 0.003056
vn 0.999976 -0.006141 0.003056
vn 0.999995 0.001900 -0.002486
vn 0.999995 0.001899 -0.002486
vn 0.999924 0.007566 -0.009748
vn 0.999924 0.007566 -0.009747
vn 0.999903 0.006383 -0.012367
vn 0.999903 0.006383 -0.012366
vn 0.999682 0.005941 -0.024519
vn 0.999682 0.005941 -0.024517
vn 0.998770 0.004686 -0.049353
vn 0.998771 0.004686 -0.049349
vn 0.997911 0.002124 -0.064565
vn 0.997911 0.002124 -0.064565
vn -0.970382 -0.233396 0.062332
vn -0.970382 -0.233396 0.062332
vn -0.998749 -0.047917 0.014313
vn -0.998756 -0.047780 0.014278
vn -0.999976 -0.006141 0.003056
vn -0.999976 -0.006141 0.003056
vn -0.999995 0.001899 -0.002486
vn -0.999995 0.001900 -0.002486
vn -0.999924 0.007566 -0.009747
vn -0.999924 0.007566 -0.009748
vn -0.999903 0.006383 -0.012366
vn -0.999903 0.006383 -0.012367
vn -0.999682 0.005941 -0.024517
vn -0.999682 0.005941 -0.024519
vn -0.998771 0.004686 -0.049349
vn -0.998770 0.004686 -0.049353
vn -0.997911 0.002124 -0.064565
vn -0.997911 0.002124 -0.064565
s 1
g pCube1
usemtl initialShadingGroup
f 1/20/1 2/43/2 5/45/3 4/21/4
f 2/43/2 3/1/5 6/4/6 5/45/3
f 4/21/4 5/45/3 8/46/7 7/23/8
f 5/45/3 6/4/6 9/6/9 8/46/7
f 7/23/8 8/46/7 11/47/10 10/25/11
f 8/46/7 9/6/9 12/8/12 11/47/10
f 10/25/11 11/47/10 14/48/13 13/27/14
f 11/47/10 12/8/12 15/10/15 14/48/13
f 13/27/14 14/48/13 17/49/16 16/29/17
f 14/48/13 15/10/15 18/12/18 17/49/16
f 16/29/17 17/49/16 20/50/19 19/31/20
f 17/49/16 18/12/18 21/14/21 20/50/19
f 19/31/20 20/50/19 23/51/22 22/33/23
f 20/50/19 21/14/21 24/16/24 23/51/22
f 22/33/23 23/51/22 26/37/25 25/35/26
f 23/51/22 24/16/24 27/18/27 26/37/25
s 2
f 25/35/28 26/37/29 29/38/30 28/39/31
f 26/37/29 27/18/32 30/40/33 29/38/30
s 3
f 28/36/34 29/52/35 32/53/36 31/34/37
f 29/52/35 30/54/38 33/55/39 32/53/36
f 31/34/37 32/53/36 35/56/40 34/32/41
f 32/53/36 33/55/39 36/57/42 35/56/40
f 34/32/41 35/56/40 38/58/43 37/30/44
f 35/56/40 36/57/42 39/59/45 38/58/43
f 37/30/44 38/58/43 41/60/46 40/28/47
f 38/58/43 39/59/45 42/61/48 41/60/46
f 40/28/47 41/60/46 44/62/49 43/26/50
f 41/60/46 42/61/48 45/63/51 44/62/49
f 43/26/50 44/62/49 47/64/52 46/24/53
f 44/62/49 45/63/51 48/65/54 47/64/52
f 46/24/53 47/64/52 50/66/55 49/22/56
f 47/64/52 48/65/54 51/67/57 50/66/55
f 49/22/56 50/66/55 53/68/58 52/19/59
f 50/66/55 51/67/57 54/69/60 53/68/58
s 4
f 52/41/61 53/42/62 2/43/63 1/20/64
f 53/42/62 54/44/65 3/1/66 2/43/63
s 5
f 3/1/67 54/2/68 51/3/69 6/4/70
f 6/4/70 51/3/69 48/5/71 9/6/72
f 9/6/72 48/5/71 45/7/73 12/8/74
f 12/8/74 45/7/73 42/9/75 15/10/76
f 15/10/76 42/9/75 39/11/77 18/12/78
f 18/12/78 39/11/77 36/13/79 21/14/80
f 21/14/80 36/13/79 33/15/81 24/16/82
f 24/16/82 33/15/81 30/17/83 27/18/84
s 6
f 52/19/85 1/20/86 4/21/87 49/22/88
f 49/22/88 4/21/87 7/23/89 46/24/90
f 46/24/90 7/23/89 10/25/91 43/26/92
f 43/26/92 10/25/91 13/27/93 40/28/94
f 40/28/94 13/27/93 16/29/95 37/30/96
f 37/30/96 16/29/95 19/31/97 34/32/98
f 34/32/98 19/31/97 22/33/99 31/34/100
f 31/34/100 22/33/99 25/35/101 28/36/102
