# Blender v2.79 (sub 0) OBJ File: 'button_red.blend'
# www.blender.org
mtllib button_red.mtl
o Button_Circle
v 0.024998 -0.009824 -2.994756
v -0.560273 -0.009824 -2.937111
v -1.123052 -0.009824 -2.766394
v -1.641713 -0.009824 -2.489165
v -2.096322 -0.009824 -2.116076
v -2.469411 -0.009824 -1.661466
v -2.746640 -0.009824 -1.142806
v -2.917357 -0.009824 -0.580027
v -2.975002 -0.009824 0.005244
v -2.917358 -0.009824 0.590515
v -2.746640 -0.009824 1.153294
v -2.469411 -0.009824 1.671955
v -2.096322 -0.009824 2.126565
v -1.641713 -0.009824 2.499653
v -1.123052 -0.009824 2.776883
v -0.560272 -0.009824 2.947600
v 0.024999 -0.009824 3.005244
v 0.610270 -0.009824 2.947600
v 1.173050 -0.009824 2.776882
v 1.691710 -0.009824 2.499652
v 2.146320 -0.009824 2.126563
v 2.519408 -0.009824 1.671953
v 2.796638 -0.009824 1.153292
v 2.967355 -0.009824 0.590513
v 3.024998 -0.009824 0.005241
v 2.967353 -0.009824 -0.580030
v 2.796635 -0.009824 -1.142809
v 2.519405 -0.009824 -1.661469
v 2.146316 -0.009824 -2.116079
v 1.691705 -0.009824 -2.489167
v 1.173044 -0.009824 -2.766396
v 0.610265 -0.009824 -2.937112
v -0.501746 0.590176 -2.642876
v 0.024998 0.590176 -2.694756
v -1.008247 0.590176 -2.489231
v -1.475042 0.590176 -2.239724
v -1.884190 0.590176 -1.903944
v -2.219970 0.590176 -1.494795
v -2.469476 0.590176 -1.028001
v -2.623122 0.590176 -0.521500
v -2.675002 0.590176 0.005244
v -2.623122 0.590176 0.531988
v -2.469477 0.590176 1.038489
v -2.219970 0.590176 1.505284
v -1.884190 0.590176 1.914432
v -1.475042 0.590176 2.250212
v -1.008247 0.590176 2.499719
v -0.501745 0.590176 2.653364
v 0.024999 0.590176 2.705244
v 0.551743 0.590176 2.653364
v 1.058244 0.590176 2.499718
v 1.525039 0.590176 2.250211
v 1.934188 0.590176 1.914431
v 2.269967 0.590176 1.505282
v 2.519474 0.590176 1.038487
v 2.673119 0.590176 0.531986
v 2.724998 0.590176 0.005242
v 2.673118 0.590176 -0.521502
v 2.519472 0.590176 -1.028004
v 2.269964 0.590176 -1.494798
v 1.934184 0.590176 -1.903946
v 1.525035 0.590176 -2.239726
v 1.058240 0.590176 -2.489232
v 0.551738 0.590176 -2.642877
v -0.560273 0.440176 -2.937111
v 0.024998 0.440176 -2.994756
v -1.123052 0.440176 -2.766394
v -1.641713 0.440176 -2.489165
v -2.096322 0.440176 -2.116076
v -2.469411 0.440176 -1.661466
v -2.746640 0.440176 -1.142806
v -2.917357 0.440176 -0.580027
v -2.975002 0.440176 0.005244
v -2.917358 0.440176 0.590515
v -2.746640 0.440176 1.153294
v -2.469411 0.440176 1.671955
v -2.096322 0.440176 2.126565
v -1.641713 0.440176 2.499653
v -1.123052 0.440176 2.776883
v -0.560272 0.440176 2.947600
v 0.024999 0.440176 3.005244
v 0.610270 0.440176 2.947600
v 1.173050 0.440176 2.776882
v 1.691710 0.440176 2.499652
v 2.146320 0.440176 2.126563
v 2.519408 0.440176 1.671953
v 2.796638 0.440176 1.153292
v 2.967355 0.440176 0.590513
v 3.024998 0.440176 0.005241
v 2.967353 0.440176 -0.580030
v 2.796635 0.440176 -1.142809
v 2.519405 0.440176 -1.661469
v 2.146316 0.440176 -2.116079
v 1.691705 0.440176 -2.489167
v 1.173044 0.440176 -2.766396
v 0.610265 0.440176 -2.937112
v -0.501746 0.290176 -2.642876
v 0.024998 0.290176 -2.694756
v -1.008247 0.290176 -2.489231
v -1.475042 0.290176 -2.239724
v -1.884190 0.290176 -1.903944
v -2.219970 0.290176 -1.494795
v -2.469476 0.290176 -1.028001
v -2.623122 0.290176 -0.521500
v -2.675002 0.290176 0.005244
v -2.623122 0.290176 0.531988
v -2.469477 0.290176 1.038489
v -2.219970 0.290176 1.505284
v -1.884190 0.290176 1.914432
v -1.475042 0.290176 2.250212
v -1.008247 0.290176 2.499719
v -0.501745 0.290176 2.653364
v 0.024999 0.290176 2.705244
v 0.551743 0.290176 2.653364
v 1.058244 0.290176 2.499718
v 1.525039 0.290176 2.250211
v 1.934188 0.290176 1.914431
v 2.269967 0.290176 1.505282
v 2.519474 0.290176 1.038487
v 2.673119 0.290176 0.531986
v 2.724998 0.290176 0.005242
v 2.673118 0.290176 -0.521502
v 2.519472 0.290176 -1.028004
v 2.269964 0.290176 -1.494798
v 1.934184 0.290176 -1.903946
v 1.525035 0.290176 -2.239726
v 1.058240 0.290176 -2.489232
v 0.551738 0.290176 -2.642877
v -0.501746 1.190176 -2.642876
v 0.024998 1.190176 -2.694756
v -1.008247 1.190176 -2.489231
v -1.475042 1.190176 -2.239724
v -1.884190 1.190176 -1.903944
v -2.219970 1.190176 -1.494795
v -2.469476 1.190176 -1.028001
v -2.623122 1.190176 -0.521500
v -2.675002 1.190176 0.005244
v -2.623122 1.190176 0.531988
v -2.469477 1.190176 1.038489
v -2.219970 1.190176 1.505284
v -1.884190 1.190176 1.914432
v -1.475042 1.190176 2.250212
v -1.008247 1.190176 2.499719
v -0.501745 1.190176 2.653364
v 0.024999 1.190176 2.705244
v 0.551743 1.190176 2.653364
v 1.058244 1.190176 2.499718
v 1.525039 1.190176 2.250211
v 1.934188 1.190176 1.914431
v 2.269967 1.190176 1.505282
v 2.519474 1.190176 1.038487
v 2.673119 1.190176 0.531986
v 2.724998 1.190176 0.005242
v 2.673118 1.190176 -0.521502
v 2.519472 1.190176 -1.028004
v 2.269964 1.190176 -1.494798
v 1.934184 1.190176 -1.903946
v 1.525035 1.190176 -2.239726
v 1.058240 1.190176 -2.489232
v 0.551738 1.190176 -2.642877
vn 0.8819 0.0000 0.4714
vn 0.0000 1.0000 -0.0000
vn -0.9952 0.0000 0.0980
vn 0.9569 0.0000 0.2903
vn -0.9569 0.0000 0.2903
vn 0.9952 0.0000 0.0980
vn -0.8819 0.0000 0.4714
vn 0.9952 0.0000 -0.0980
vn -0.7730 0.0000 0.6344
vn 0.9569 0.0000 -0.2903
vn -0.6344 0.0000 0.7730
vn 0.8819 0.0000 -0.4714
vn -0.4714 0.0000 0.8819
vn -0.0980 0.0000 -0.9952
vn 0.7730 0.0000 -0.6344
vn -0.2903 0.0000 0.9569
vn -0.2903 0.0000 -0.9569
vn 0.6344 0.0000 -0.7730
vn -0.0980 0.0000 0.9952
vn -0.4714 0.0000 -0.8819
vn 0.4714 0.0000 -0.8819
vn 0.0980 0.0000 0.9952
vn -0.6344 0.0000 -0.7730
vn 0.2903 0.0000 -0.9569
vn 0.2903 0.0000 0.9569
vn -0.7730 0.0000 -0.6344
vn 0.0980 0.0000 -0.9952
vn 0.4714 0.0000 0.8819
vn -0.8819 0.0000 -0.4714
vn 0.6344 0.0000 0.7730
vn -0.9569 0.0000 -0.2903
vn 0.7730 0.0000 0.6344
vn -0.9952 0.0000 -0.0980
vn -0.0946 0.8744 0.4758
vn 0.0000 0.8744 0.4851
vn -0.9588 0.0000 0.2841
vn 0.9216 0.0000 0.3880
vn -0.1856 0.8744 -0.4482
vn -0.2695 0.8744 -0.4034
vn -0.2425 0.0000 -0.9701
vn -0.9912 0.0000 0.1321
vn 0.4034 0.8744 0.2695
vn 0.4482 0.8744 0.1856
vn -0.9701 0.0000 0.2425
vn -0.7071 0.0000 0.7071
vn -0.3430 0.8744 -0.3430
vn 0.5547 0.0000 -0.8320
vn 0.4758 0.8744 0.0946
vn 0.9363 0.0000 -0.3511
vn -0.4034 0.8744 -0.2695
vn -0.8944 0.0000 0.4472
vn 0.4851 0.8744 0.0000
vn 0.9701 0.0000 -0.2425
vn -0.4482 0.8744 -0.1856
vn 0.4758 0.8744 -0.0946
vn 0.9980 0.0000 -0.0623
vn -0.4758 0.8744 -0.0946
vn -0.8480 0.0000 -0.5300
vn 0.4482 0.8744 -0.1856
vn -0.4851 0.8744 0.0000
vn -1.0000 0.0000 0.0000
vn 0.4034 0.8744 -0.2695
vn -0.4758 0.8744 0.0946
vn -0.9922 0.0000 0.1240
vn 0.3430 0.8744 -0.3430
vn -0.7071 0.0000 -0.7071
vn -0.4482 0.8744 0.1856
vn 0.2695 0.8744 -0.4034
vn -0.4472 0.0000 -0.8944
vn -0.4034 0.8744 0.2695
vn 0.0000 0.0000 1.0000
vn 0.1856 0.8744 -0.4482
vn 0.8682 0.0000 0.4961
vn 0.0946 0.8744 0.4758
vn 0.4472 0.0000 -0.8944
vn -0.3430 0.8744 0.3430
vn 0.2425 0.0000 0.9701
vn 0.0946 0.8744 -0.4758
vn 0.9785 0.0000 0.2060
vn 0.1856 0.8744 0.4482
vn 0.8575 0.0000 -0.5145
vn -0.2695 0.8744 0.4034
vn -0.9398 0.0000 -0.3417
vn 0.0000 0.8744 -0.4851
vn 1.0000 0.0000 0.0000
vn 0.2695 0.8744 0.4034
vn -0.4472 0.0000 0.8944
vn -0.1856 0.8744 0.4482
vn -0.8944 0.0000 -0.4472
vn -0.0946 0.8744 -0.4758
vn 0.3430 0.8744 0.3430
vn -0.0440 0.8936 -0.4468
vn -0.1303 0.8936 -0.4296
vn -0.2116 0.8936 -0.3959
vn -0.2848 0.8936 -0.3470
vn -0.3470 0.8936 -0.2848
vn -0.3959 0.8936 -0.2116
vn -0.4296 0.8936 -0.1303
vn -0.4468 0.8936 -0.0440
vn -0.4468 0.8936 0.0440
vn -0.4296 0.8936 0.1303
vn -0.3959 0.8936 0.2116
vn -0.3470 0.8936 0.2848
vn -0.2848 0.8936 0.3470
vn -0.2116 0.8936 0.3959
vn -0.1303 0.8936 0.4296
vn -0.0440 0.8936 0.4468
vn 0.0440 0.8936 0.4468
vn 0.1303 0.8936 0.4296
vn 0.2116 0.8936 0.3959
vn 0.2848 0.8936 0.3470
vn 0.3470 0.8936 0.2848
vn 0.3959 0.8936 0.2116
vn 0.4296 0.8936 0.1303
vn 0.4468 0.8936 0.0440
vn 0.4468 0.8936 -0.0440
vn 0.4296 0.8936 -0.1303
vn 0.3959 0.8936 -0.2116
vn 0.3470 0.8936 -0.2848
vn 0.2848 0.8936 -0.3470
vn 0.2116 0.8936 -0.3959
vn 0.1303 0.8936 -0.4296
vn 0.0440 0.8936 -0.4468
vn -0.1420 -0.6857 -0.7139
vn 0.0000 -0.6857 -0.7279
vn 0.1420 -0.6857 -0.7139
vn 0.2785 -0.6857 -0.6725
vn 0.4044 -0.6857 -0.6052
vn 0.5147 -0.6857 -0.5147
vn 0.6052 -0.6857 -0.4044
vn 0.6725 -0.6857 -0.2785
vn 0.7139 -0.6857 -0.1420
vn 0.7279 -0.6857 0.0000
vn 0.7139 -0.6857 0.1420
vn 0.6725 -0.6857 0.2785
vn 0.6052 -0.6857 0.4044
vn 0.5147 -0.6857 0.5147
vn 0.4044 -0.6857 0.6052
vn 0.2785 -0.6857 0.6725
vn 0.1420 -0.6857 0.7139
vn 0.0000 -0.6857 0.7279
vn -0.1420 -0.6857 0.7139
vn -0.2785 -0.6857 0.6725
vn -0.4044 -0.6857 0.6052
vn -0.5147 -0.6857 0.5147
vn -0.6052 -0.6857 0.4044
vn -0.6725 -0.6857 0.2785
vn -0.7139 -0.6857 0.1420
vn -0.7279 -0.6857 0.0000
vn -0.7139 -0.6857 -0.1420
vn -0.6725 -0.6857 -0.2785
vn -0.6052 -0.6857 -0.4044
vn -0.5147 -0.6857 -0.5147
vn -0.4044 -0.6857 -0.6052
vn -0.2785 -0.6857 -0.6725
usemtl Material.001
s off
f 118//1 119//1 151//1 150//1
f 129//2 131//2 132//2 133//2 134//2 135//2 136//2 137//2 138//2 139//2 140//2 141//2 142//2 143//2 144//2 145//2 146//2 147//2 148//2 149//2 150//2 151//2 152//2 153//2 154//2 155//2 156//2 157//2 158//2 159//2 160//2 130//2
f 105//3 106//3 138//3 137//3
f 119//4 120//4 152//4 151//4
f 106//5 107//5 139//5 138//5
f 120//6 121//6 153//6 152//6
f 107//7 108//7 140//7 139//7
f 121//8 122//8 154//8 153//8
f 108//9 109//9 141//9 140//9
f 122//10 123//10 155//10 154//10
f 109//11 110//11 142//11 141//11
f 123//12 124//12 156//12 155//12
f 110//13 111//13 143//13 142//13
f 98//14 97//14 129//14 130//14
f 124//15 125//15 157//15 156//15
f 111//16 112//16 144//16 143//16
f 97//17 99//17 131//17 129//17
f 125//18 126//18 158//18 157//18
f 112//19 113//19 145//19 144//19
f 99//20 100//20 132//20 131//20
f 126//21 127//21 159//21 158//21
f 113//22 114//22 146//22 145//22
f 100//23 101//23 133//23 132//23
f 127//24 128//24 160//24 159//24
f 114//25 115//25 147//25 146//25
f 101//26 102//26 134//26 133//26
f 128//27 98//27 130//27 160//27
f 115//28 116//28 148//28 147//28
f 102//29 103//29 135//29 134//29
f 116//30 117//30 149//30 148//30
f 103//31 104//31 136//31 135//31
f 117//32 118//32 150//32 149//32
f 104//33 105//33 137//33 136//33
s 1
f 64//34 34//35 98//36 128//37
f 51//38 52//39 116//40 115//41
f 38//42 39//43 103//44 102//45
f 52//39 53//46 117//47 116//40
f 39//43 40//48 104//49 103//44
f 53//46 54//50 118//51 117//47
f 40//48 41//52 105//53 104//49
f 54//50 55//54 119//44 118//51
f 41//52 42//55 106//56 105//53
f 55//54 56//57 120//58 119//44
f 42//55 43//59 107//53 106//56
f 56//57 57//60 121//61 120//58
f 43//59 44//62 108//47 107//53
f 57//60 58//63 122//64 121//61
f 44//62 45//65 109//66 108//47
f 58//63 59//67 123//61 122//64
f 45//65 46//68 110//69 109//66
f 59//67 60//70 124//71 123//61
f 46//68 47//72 111//73 110//69
f 34//35 33//74 97//75 98//36
f 60//70 61//76 125//77 124//71
f 47//72 48//78 112//79 111//73
f 33//74 35//80 99//81 97//75
f 61//76 62//82 126//83 125//77
f 48//78 49//84 113//85 112//79
f 35//80 36//86 100//87 99//81
f 62//82 63//88 127//89 126//83
f 49//84 50//90 114//61 113//85
f 36//86 37//91 101//71 100//87
f 63//88 64//34 128//37 127//89
f 50//90 51//38 115//41 114//61
f 37//91 38//42 102//45 101//71
usemtl Material.002
s off
f 21//32 22//32 86//32 85//32
f 8//33 9//33 73//33 72//33
f 22//1 23//1 87//1 86//1
f 9//3 10//3 74//3 73//3
f 23//4 24//4 88//4 87//4
f 10//5 11//5 75//5 74//5
f 24//6 25//6 89//6 88//6
f 11//7 12//7 76//7 75//7
f 25//8 26//8 90//8 89//8
f 12//9 13//9 77//9 76//9
f 26//10 27//10 91//10 90//10
f 13//11 14//11 78//11 77//11
f 27//12 28//12 92//12 91//12
f 14//13 15//13 79//13 78//13
f 1//14 2//14 65//14 66//14
f 28//15 29//15 93//15 92//15
f 15//16 16//16 80//16 79//16
f 2//17 3//17 67//17 65//17
f 29//18 30//18 94//18 93//18
f 16//19 17//19 81//19 80//19
f 3//20 4//20 68//20 67//20
f 30//21 31//21 95//21 94//21
f 17//22 18//22 82//22 81//22
f 4//23 5//23 69//23 68//23
f 31//24 32//24 96//24 95//24
f 18//25 19//25 83//25 82//25
f 5//26 6//26 70//26 69//26
f 32//27 1//27 66//27 96//27
f 19//28 20//28 84//28 83//28
f 6//29 7//29 71//29 70//29
f 20//30 21//30 85//30 84//30
f 7//31 8//31 72//31 71//31
f 33//92 34//92 66//92 65//92
f 35//93 33//93 65//93 67//93
f 36//94 35//94 67//94 68//94
f 37//95 36//95 68//95 69//95
f 38//96 37//96 69//96 70//96
f 39//97 38//97 70//97 71//97
f 40//98 39//98 71//98 72//98
f 41//99 40//99 72//99 73//99
f 42//100 41//100 73//100 74//100
f 43//101 42//101 74//101 75//101
f 44//102 43//102 75//102 76//102
f 45//103 44//103 76//103 77//103
f 46//104 45//104 77//104 78//104
f 47//105 46//105 78//105 79//105
f 48//106 47//106 79//106 80//106
f 49//107 48//107 80//107 81//107
f 50//108 49//108 81//108 82//108
f 51//109 50//109 82//109 83//109
f 52//110 51//110 83//110 84//110
f 53//111 52//111 84//111 85//111
f 54//112 53//112 85//112 86//112
f 55//113 54//113 86//113 87//113
f 56//114 55//114 87//114 88//114
f 57//115 56//115 88//115 89//115
f 58//116 57//116 89//116 90//116
f 59//117 58//117 90//117 91//117
f 60//118 59//118 91//118 92//118
f 61//119 60//119 92//119 93//119
f 62//120 61//120 93//120 94//120
f 63//121 62//121 94//121 95//121
f 64//122 63//122 95//122 96//122
f 34//123 64//123 96//123 66//123
s 1
f 2//124 1//125 32//126 31//127 30//128 29//129 28//130 27//131 26//132 25//133 24//134 23//135 22//136 21//137 20//138 19//139 18//140 17//141 16//142 15//143 14//144 13//145 12//146 11//147 10//148 9//149 8//150 7//151 6//152 5//153 4//154 3//155
