# This file uses centimeters as units for non-parametric coordinates.

mtllib Stump.mtl
g default
v -94.561241 -46.867905 0.000000
v 80.592041 -47.610050 0.141195
v -78.723633 -35.355339 -35.355339
v 105.072525 -31.944689 -33.480278
v -78.723633 -0.000000 -50.000000
v 75.928268 -0.410051 -47.058804
v -71.838470 35.355339 -35.355339
v 60.119743 27.282005 -30.461388
v -74.126472 45.556229 -0.000000
v 74.620712 50.000000 -0.000000
v -84.636581 35.355339 35.355339
v 75.408531 32.965389 38.276924
v -84.636581 0.000000 50.000000
v 99.368080 -0.410051 52.101482
v -89.233742 -28.025421 32.385521
v 72.626289 -33.785492 38.276924
v -6.342688 -35.927670 4.587774
v -6.415800 -30.618229 -22.571293
v -6.546103 -6.996685 -32.657104
v -6.584924 23.568155 -20.659084
v -6.279485 36.788094 11.288795
v -6.256443 30.539927 38.843327
v -6.278989 1.360850 41.835541
v -6.306105 -24.985252 30.986612
v 27.861380 31.823681 -28.666357
v 27.687576 50.000000 4.566112
v 41.953548 39.699181 -13.844260
v 13.604178 41.292816 -11.767651
v 18.841049 60.323784 -21.732967
v 27.721302 69.030968 -16.430723
v 27.830894 50.854649 -27.218601
v 36.716679 58.730145 -22.407072
v 21.522394 72.970757 -37.769180
v 27.738571 75.100220 -29.396481
v 27.815285 66.342361 -41.609123
v 34.035336 70.844101 -34.095272
v 25.659473 74.122696 -39.877201
v -87.682175 -35.961887 -3.007796
v 86.856438 -43.266869 0.043046
v -72.401855 -30.591997 -30.643595
v 86.499443 -23.090139 -27.516794
v -72.659630 -0.000000 -43.347031
v 75.520752 -0.293277 -41.047489
v -72.293831 30.423513 -30.700048
v 60.052948 22.729431 -26.195126
v -71.638496 38.994118 0.033107
v 71.870834 43.807697 1.764035
v -81.735977 27.429089 28.676270
v 71.405533 30.580917 30.712524
v -81.639397 0.000000 43.332275
v 96.618057 0.000000 43.242054
v -81.850288 -23.298433 27.653351
v 71.405533 -30.580917 30.712524
v -6.335719 -50.000000 8.084821
v -6.335719 -35.355339 -27.270519
v -6.335719 -0.000000 -41.915180
v -6.335719 35.355339 -27.270519
v -6.335719 50.000000 8.084821
v -6.335719 35.355339 43.440159
v -6.335719 0.000000 58.084820
v -6.335719 -35.355339 43.440159
v -74.126472 49.590008 3.887848
v -62.462193 39.658119 -38.662151
v -84.636581 4.033780 53.887848
v -97.192291 39.389118 39.243187
v -97.192291 35.355339 35.355339
v -106.026779 -53.749817 -0.913089
v -90.189171 -42.237251 -36.268429
v -78.723633 -6.881911 -50.913090
v -89.233742 -34.907333 31.472433
v -106.026779 -46.867905 -0.000000
v -90.189171 -35.355339 -35.355339
v 74.620712 53.266361 2.868099
v 104.420486 -37.838398 -36.630898
v 99.368080 2.856311 54.969582
v 27.687576 53.266361 7.434211
v 112.233574 36.231750 41.145023
v 112.233574 32.965389 38.276924
v 92.768486 -27.891781 -30.083624
vt 0.241019 0.798986
vt 0.169567 0.791607
vt 0.102166 0.782118
vt 0.069135 0.724257
vt 0.241019 0.725114
vt 0.657108 0.174337
vt 0.827906 0.179133
vt 0.826260 0.259109
vt 0.728197 0.249569
vt 0.657108 0.248209
vt 0.051540 0.522195
vt 0.221492 0.506325
vt 0.221339 0.563072
vt 0.083467 0.579938
vt 0.611462 0.536161
vt 0.805601 0.551890
vt 0.782662 0.599523
vt 0.611190 0.585516
vt 0.473051 0.600135
vt 0.611109 0.649379
vt 0.473815 0.663703
vt 0.042095 0.084046
vt 0.057901 0.090742
vt 0.031721 0.154638
vt 0.013210 0.153782
vt 0.485532 0.910669
vt 0.622095 0.934187
vt 0.622143 0.991760
vt 0.464434 0.970516
vt 0.647654 0.807891
vt 0.485385 0.807977
vt 0.432705 0.744080
vt 0.647701 0.746924
vt 0.805160 0.744080
vt 0.647757 0.691875
vt 0.805601 0.695400
vt 0.221569 0.451167
vt 0.383941 0.451739
vt 0.416225 0.515821
vt 0.415479 0.573405
vt 0.473589 0.536216
vt 0.750343 0.647627
vt 0.484163 0.846454
vt 0.621457 0.867434
vt 0.785384 0.914285
vt 0.784412 0.974771
vt 0.805362 0.801391
vt 0.485385 0.680184
vt 0.063725 0.458131
vt 0.878697 0.913556
vt 0.872114 0.925870
vt 0.801865 0.893139
vt 0.121777 0.055161
vt 0.121982 0.064235
vt 0.413985 0.105366
vt 0.404098 0.115243
vt 0.340033 0.088784
vt 0.346318 0.065996
vt 0.450789 0.163923
vt 0.436857 0.163923
vt 0.272446 0.090051
vt 0.282291 0.100004
vt 0.255748 0.163923
vt 0.241847 0.163923
vt 0.272446 0.237795
vt 0.282173 0.227491
vt 0.346387 0.245398
vt 0.346318 0.259109
vt 0.420190 0.237795
vt 0.406235 0.221234
vt 0.904849 0.384232
vt 0.860978 0.423995
vt 0.849899 0.405802
vt 0.870721 0.366039
vt 0.532284 0.479916
vt 0.521342 0.519680
vt 0.502559 0.499895
vt 0.502495 0.460131
vt 0.846837 0.275590
vt 0.864728 0.315354
vt 0.852241 0.336877
vt 0.808369 0.297113
vt 0.483993 0.516350
vt 0.473051 0.476587
vt 0.833887 0.436677
vt 0.816393 0.432227
vt 0.808369 0.418378
vt 0.838437 0.386017
vt 0.889149 0.340665
vt 0.879332 0.349558
vt 0.874781 0.298899
vt 0.904849 0.331259
vt 0.811988 0.434634
vt 0.901230 0.347515
vt 0.041332 0.825215
vt 0.216537 0.844015
vt 0.216537 0.917887
vt 0.008240 0.899087
vt 0.035311 0.654522
vt 0.241019 0.651242
vt 0.358291 0.807977
vt 0.392268 0.725114
vt 0.657108 0.340693
vt 0.728197 0.348045
vt 0.698771 0.382173
vt 0.467270 0.183106
vt 0.515464 0.256979
vt 0.203048 0.349462
vt 0.423908 0.355430
vt 0.373846 0.425166
vt 0.203048 0.423335
vt 0.029839 0.290905
vt 0.203048 0.275590
vt 0.039444 0.349462
vt 0.398166 0.901290
vt 0.381522 0.980971
vt 0.216537 0.991760
vt 0.422245 0.831554
vt 0.416225 0.636863
vt 0.392268 0.710735
vt 0.657108 0.414565
vt 0.539836 0.438367
vt 0.515464 0.357586
vt 0.013210 0.431763
vt 0.039444 0.357891
vt 0.368033 0.278870
vt 0.423908 0.348606
vt 0.043328 0.966754
vt 0.606123 0.157856
vt 0.538722 0.154106
vt 0.568167 0.123136
vt 0.538359 0.084669
vt 0.636422 0.094210
vt 0.728560 0.417482
vt 0.185719 0.211642
vt 0.176805 0.202130
vt 0.207838 0.154025
vt 0.220398 0.153782
vt 0.042095 0.223517
vt 0.057901 0.218535
vt 0.118386 0.246171
vt 0.122072 0.259109
vt 0.037166 0.515911
vt 0.070258 0.589783
vt 0.008240 0.658368
vt 0.009603 0.646054
vt 0.760691 0.855867
vt 0.467270 0.283713
vt 0.467270 0.275590
vt 0.515464 0.349462
vt 0.013210 0.423335
vt 0.848316 0.633104
vt 0.822082 0.633104
vt 0.870276 0.559232
vt 0.377882 0.798986
vt 0.520245 0.431458
vt 0.848316 0.663703
vt 0.763999 0.083984
vt 0.762091 0.069605
vt 0.835963 0.045550
vt 0.837871 0.059930
vt 0.029839 0.276526
vt 0.903630 0.084920
vt 0.905538 0.099300
vt 0.733400 0.157856
vt 0.731492 0.143477
vt 0.046301 0.589783
vt 0.013210 0.515911
vt 0.070258 0.620382
vt 0.048298 0.448244
vt 0.636422 0.088217
vt 0.715011 0.008240
vt 0.715011 0.014233
vt 0.538359 0.078677
vt 0.467270 0.077317
vt 0.450789 0.418341
vt 0.450789 0.425166
vt 0.822082 0.680184
vt 0.900671 0.760160
vt 0.823728 0.760160
vt 0.865017 0.934339
vt 0.900485 0.991760
vt 0.873790 0.789046
vt 0.179566 0.106393
vt 0.184929 0.096361
vt 0.574207 0.456528
vt 0.561108 0.461891
vt 0.561854 0.519475
vt 0.548765 0.519680
vn 0.067394 0.756560 -0.650442
vn 0.033002 0.505584 -0.862146
vn 0.025967 0.726469 -0.686709
vn 0.216365 0.163415 -0.962539
vn 0.057478 0.093654 -0.993944
vn -0.016025 0.763826 0.645223
vn 0.673317 0.596337 0.437066
vn 0.294105 0.880669 -0.371383
vn -0.065631 0.973701 -0.218173
vn -0.014346 0.955686 -0.294038
vn -0.408961 0.898691 -0.158445
vn 0.027639 0.998625 -0.044553
vn -0.019802 0.753669 0.656956
vn -0.484463 0.723222 0.492184
vn -0.019802 0.753669 0.656956
vn 0.600106 0.593965 0.535797
vn 0.582721 0.340344 0.737972
vn -0.045934 0.011144 0.998882
vn -0.565981 0.068105 0.821601
vn -0.045934 0.011144 0.998882
vn -0.033735 -0.708837 0.704565
vn -0.710717 -0.486653 0.507986
vn 0.611868 -0.651309 0.448791
vn 0.940245 -0.338781 0.034149
vn 0.518502 0.022457 -0.854782
vn 0.690316 -0.192745 -0.697362
vn -0.654651 -0.749294 -0.099958
vn 0.005928 -0.998750 0.049629
vn 0.020456 -0.691755 -0.721843
vn -0.565381 -0.524843 -0.636305
vn 0.020456 -0.691755 -0.721843
vn 0.579440 -0.441121 -0.685319
vn 0.518502 0.022457 -0.854782
vn 0.011755 0.083536 -0.996435
vn -0.511896 0.132552 -0.848759
vn 0.011755 0.083536 -0.996435
vn 0.034584 0.723734 -0.689212
vn -0.428842 0.703253 -0.567036
vn 0.034584 0.723734 -0.689212
vn 0.043944 0.706691 -0.706156
vn 0.047380 0.998733 0.016968
vn 0.027639 0.998625 -0.044553
vn 0.027639 0.998625 -0.044553
vn 0.047380 0.998733 0.016968
vn 0.600106 0.593965 0.535797
vn -0.019802 0.753669 0.656956
vn -0.045934 0.011144 0.998882
vn -0.565981 0.068105 0.821601
vn -0.484463 0.723222 0.492184
vn -0.019802 0.753669 0.656956
vn -0.045934 0.011144 0.998882
vn 0.582721 0.340344 0.737972
vn 0.731588 -0.448413 0.513522
vn -0.033735 -0.708837 0.704565
vn 0.005928 -0.998750 0.049629
vn -0.654651 -0.749294 -0.099958
vn -0.710717 -0.486653 0.507986
vn -0.033735 -0.708837 0.704565
vn 0.005928 -0.998750 0.049629
vn 0.573551 -0.815852 -0.073653
vn 0.579440 -0.441121 -0.685319
vn 0.020456 -0.691755 -0.721843
vn 0.011755 0.083536 -0.996435
vn -0.511896 0.132552 -0.848759
vn -0.565381 -0.524843 -0.636305
vn 0.020456 -0.691755 -0.721843
vn 0.011755 0.083536 -0.996435
vn 0.518502 0.022457 -0.854782
vn 0.043944 0.706691 -0.706156
vn 0.034584 0.723734 -0.689212
vn 0.027639 0.998625 -0.044553
vn -0.408961 0.898691 -0.158445
vn -0.428842 0.703253 -0.567036
vn 0.034584 0.723734 -0.689212
vn 0.829441 -0.331934 0.449274
vn 0.631902 0.391489 0.668907
vn 0.801586 -0.454870 0.388011
vn 0.801586 -0.454870 0.388011
vn 0.966752 -0.137700 0.215472
vn 0.940245 -0.338781 0.034149
vn 0.611868 -0.651309 0.448791
vn -0.563680 0.699393 -0.439449
vn -0.428842 0.703253 -0.567036
vn -0.408961 0.898691 -0.158445
vn -0.422283 0.892177 -0.160306
vn -0.689524 -0.059416 -0.721821
vn -0.511896 0.132552 -0.848759
vn -0.428842 0.703253 -0.567036
vn -0.563680 0.699393 -0.439449
vn -0.446377 0.716597 0.535944
vn -0.484463 0.723222 0.492184
vn -0.565981 0.068105 0.821601
vn -0.635485 0.230781 0.736817
vn -0.917695 0.328696 -0.223148
vn -0.710717 -0.486653 0.507986
vn -0.654651 -0.749294 -0.099958
vn -0.745095 0.376774 -0.550340
vn -0.585172 -0.541560 -0.603561
vn -0.565381 -0.524843 -0.636305
vn -0.511896 0.132552 -0.848759
vn -0.689524 -0.059416 -0.721821
vn -0.240718 0.844565 -0.478293
vn -0.747666 0.537036 0.390625
vn -0.747666 0.537036 0.390625
vn -0.357962 0.836325 -0.415239
vn -0.357962 0.836325 -0.415239
vn -0.727205 -0.239420 -0.643312
vn -0.727205 -0.239420 -0.643312
vn 0.033002 0.505584 -0.862146
vn 0.395792 0.753925 -0.524353
vn 0.968370 0.181030 -0.171717
vn 0.777226 0.509870 0.368718
vn 0.804938 0.430180 0.408680
vn 0.033002 0.505584 -0.862146
vn 0.727371 -0.235190 -0.644684
vn 0.968370 0.181030 -0.171717
vn 0.395792 0.753925 -0.524353
vn -0.747666 0.537036 0.390625
vn 0.062555 0.987506 0.144633
vn -0.813960 0.431560 -0.388877
vn -0.747666 0.537036 0.390625
vn -0.727205 -0.239420 -0.643312
vn -0.813960 0.431560 -0.388877
vn 0.060892 -0.167408 -0.984005
vn -0.727205 -0.239420 -0.643312
vn 0.968370 0.181030 -0.171717
vn 0.827441 0.445731 -0.341564
vn 0.062555 0.987506 0.144633
vn 0.777226 0.509870 0.368718
vn 0.727371 -0.235190 -0.644684
vn 0.060892 -0.167408 -0.984005
vn 0.827441 0.445731 -0.341564
vn 0.968370 0.181030 -0.171717
vn 0.060892 -0.167408 -0.984005
vn -0.813960 0.431560 -0.388877
vn 0.114208 0.772800 -0.624288
vn 0.114208 0.772800 -0.624288
vn 0.062555 0.987506 0.144633
vn 0.827441 0.445731 -0.341564
vn 0.114208 0.772800 -0.624288
vn 0.827441 0.445731 -0.341564
vn 0.060892 -0.167408 -0.984005
vn 0.114208 0.772800 -0.624288
vn -0.813960 0.431560 -0.388877
vn 0.062555 0.987506 0.144633
vn -0.532754 -0.420769 -0.734253
vn 0.035953 -0.728843 -0.683736
vn 0.020788 -0.998757 0.045296
vn -0.682064 -0.726288 0.085408
vn 0.057478 0.093654 -0.993944
vn 0.216365 0.163415 -0.962539
vn 0.244430 -0.443324 -0.862391
vn 0.035953 -0.728843 -0.683736
vn -0.213142 0.722364 -0.657845
vn 0.067394 0.756560 -0.650442
vn 0.057478 0.093654 -0.993944
vn -0.301414 0.256369 -0.918381
vn -0.014346 0.955686 -0.294038
vn -0.240718 0.844565 -0.478293
vn -0.357962 0.836325 -0.415239
vn -0.695751 0.579092 0.424951
vn -0.016025 0.763826 0.645223
vn -0.014346 0.955686 -0.294038
vn -0.334412 0.877578 -0.343550
vn -0.021471 -0.270227 0.962557
vn 0.438158 -0.232367 0.868345
vn 0.673317 0.596337 0.437066
vn -0.016025 0.763826 0.645223
vn -0.422753 -0.237635 0.874534
vn -0.043074 -0.613750 0.788324
vn -0.021471 -0.270227 0.962557
vn -0.444801 -0.533855 0.719132
vn 0.020788 -0.998757 0.045296
vn 0.801586 -0.454870 0.388011
vn 0.611868 -0.651309 0.448791
vn -0.043074 -0.613750 0.788324
vn 0.035953 -0.728843 -0.683736
vn 0.244430 -0.443324 -0.862391
vn 0.801586 -0.454870 0.388011
vn 0.020788 -0.998757 0.045296
vn 0.035953 -0.728843 -0.683736
vn -0.532754 -0.420769 -0.734253
vn -0.244689 -0.081111 -0.966203
vn 0.057478 0.093654 -0.993944
vn 0.067394 0.756560 -0.650442
vn -0.213142 0.722364 -0.657845
vn -0.745095 0.376774 -0.550340
vn -0.014346 0.955686 -0.294038
vn -0.016025 0.763826 0.645223
vn -0.695751 0.579092 0.424951
vn -0.469263 -0.246383 0.847990
vn -0.021471 -0.270227 0.962557
vn -0.043074 -0.613750 0.788324
vn 0.611868 -0.651309 0.448791
vn 0.402452 -0.509495 0.760557
vn -0.021471 -0.270227 0.962557
vn -0.043074 -0.613750 0.788324
vn -0.429797 -0.446176 0.784985
vn -0.682064 -0.726288 0.085408
vn 0.020788 -0.998757 0.045296
vn 0.025967 0.726469 -0.686709
vn 0.033002 0.505584 -0.862146
vn 0.395792 0.753925 -0.524353
vn 0.395792 0.753925 -0.524353
vn -0.240718 0.844565 -0.478293
vn 0.163865 0.747857 -0.643318
vn 0.067394 0.756560 -0.650442
vn -0.014346 0.955686 -0.294038
vn -0.357962 0.836325 -0.415239
vn 0.163865 0.747857 -0.643318
vn 0.025967 0.726469 -0.686709
vn 0.395792 0.753925 -0.524353
vn -0.357962 0.836325 -0.415239
vn 0.033002 0.505584 -0.862146
vn 0.067394 0.756560 -0.650442
vn 0.998443 0.053675 0.015157
vn 0.731588 -0.448413 0.513522
vn 0.582721 0.340344 0.737972
vn 0.714146 0.580254 0.391536
vn 0.573123 -0.463728 -0.675638
vn 0.579440 -0.441121 -0.685319
vn 0.573551 -0.815852 -0.073653
vn 0.679736 -0.666389 -0.306407
vn -0.422283 0.892177 -0.160306
vn -0.408961 0.898691 -0.158445
vn -0.484463 0.723222 0.492184
vn -0.446377 0.716597 0.535944
vn 0.216365 0.163415 -0.962539
vn 0.650462 0.300856 -0.697413
vn 0.244430 -0.443324 -0.862391
vn -0.635485 0.230781 0.736817
vn -0.565981 0.068105 0.821601
vn -0.710717 -0.486653 0.507986
vn -0.917695 0.328696 -0.223148
vn 0.679736 -0.666389 -0.306407
vn 0.573551 -0.815852 -0.073653
vn 0.731588 -0.448413 0.513522
vn 0.998443 0.053675 0.015157
vn -0.745095 0.376774 -0.550340
vn -0.654651 -0.749294 -0.099958
vn -0.565381 -0.524843 -0.636305
vn -0.585172 -0.541560 -0.603561
vn 0.690316 -0.192745 -0.697362
vn 0.518502 0.022457 -0.854782
vn 0.579440 -0.441121 -0.685319
vn 0.573123 -0.463728 -0.675638
vn -0.033735 -0.708837 0.704565
vn 0.731588 -0.448413 0.513522
vn 0.573551 -0.815852 -0.073653
vn 0.005928 -0.998750 0.049629
vn -0.990699 0.094430 -0.097974
vn -0.695751 0.579092 0.424951
vn -0.334412 0.877578 -0.343550
vn -0.745095 0.376774 -0.550340
vn -0.444801 -0.533855 0.719132
vn -0.469263 -0.246383 0.847990
vn -0.695751 0.579092 0.424951
vn -0.990699 0.094430 -0.097974
vn -0.745095 0.376774 -0.550340
vn -0.334412 0.877578 -0.343550
vn -0.014346 0.955686 -0.294038
vn -0.021471 -0.270227 0.962557
vn -0.469263 -0.246383 0.847990
vn -0.444801 -0.533855 0.719132
vn -0.585172 -0.541560 -0.603561
vn 0.000000 -0.745510 -0.666494
vn -0.745095 0.376774 -0.550340
vn -0.917695 0.328696 -0.223148
vn -0.213142 0.722364 -0.657845
vn -0.301414 0.256369 -0.918381
vn -0.745095 0.376774 -0.550340
vn -0.213142 0.722364 -0.657845
vn -0.917695 0.328696 -0.223148
vn -0.689524 -0.059416 -0.721821
vn 0.000000 -0.745510 -0.666494
vn -0.585172 -0.541560 -0.603561
vn -0.889786 0.060026 -0.452414
vn -0.532754 -0.420769 -0.734253
vn -0.682064 -0.726288 0.085408
vn -0.998572 -0.007027 0.052966
vn -0.422753 -0.237635 0.874534
vn -0.429797 -0.446176 0.784985
vn -0.043074 -0.613750 0.788324
vn -0.998572 -0.007027 0.052966
vn -0.682064 -0.726288 0.085408
vn -0.429797 -0.446176 0.784985
vn -0.422753 -0.237635 0.874534
vn -0.301414 0.256369 -0.918381
vn -0.244689 -0.081111 -0.966203
vn -0.532754 -0.420769 -0.734253
vn -0.889786 0.060026 -0.452414
vn 0.057478 0.093654 -0.993944
vn -0.244689 -0.081111 -0.966203
vn -0.301414 0.256369 -0.918381
vn -0.446377 0.716597 0.535944
vn -0.000000 0.734106 0.679035
vn -0.000000 0.994380 -0.105874
vn -0.422283 0.892177 -0.160306
vn -0.635485 0.230781 0.736817
vn -0.000000 0.734106 0.679035
vn -0.446377 0.716597 0.535944
vn -0.422283 0.892177 -0.160306
vn -0.000000 0.994380 -0.105874
vn -0.563680 0.699393 -0.439449
vn 0.402452 -0.509495 0.760557
vn 0.438158 -0.232367 0.868345
vn -0.021471 -0.270227 0.962557
vn 0.163865 0.747857 -0.643318
vn 0.294105 0.880669 -0.371383
vn 0.673317 0.596337 0.437066
vn 0.982311 0.123554 -0.140711
vn -0.240718 0.844565 -0.478293
vn -0.065631 0.973701 -0.218173
vn 0.294105 0.880669 -0.371383
vn 0.163865 0.747857 -0.643318
vn -0.014346 0.955686 -0.294038
vn -0.065631 0.973701 -0.218173
vn -0.240718 0.844565 -0.478293
vn 0.982311 0.123554 -0.140711
vn 0.673317 0.596337 0.437066
vn 0.438158 -0.232367 0.868345
vn 0.402452 -0.509495 0.760557
vn 0.679736 -0.666389 -0.306407
vn 0.000000 -0.697848 -0.716246
vn 0.573123 -0.463728 -0.675638
vn 0.801586 -0.454870 0.388011
vn 0.631902 0.391489 0.668907
vn 0.732215 0.503912 0.458185
vn 0.732215 0.503912 0.458185
vn 0.631902 0.391489 0.668907
vn 0.714146 0.580254 0.391536
vn 0.573123 -0.463728 -0.675638
vn 0.000000 -0.697848 -0.716246
vn 0.690316 -0.192745 -0.697362
vn 0.714146 0.580254 0.391536
vn 0.582721 0.340344 0.737972
vn 0.600106 0.593965 0.535797
vn 0.732215 0.503912 0.458185
vn 0.732215 0.503912 0.458185
vn 0.600106 0.593965 0.535797
vn 0.966752 -0.137700 0.215472
vn 0.801586 -0.454870 0.388011
s off
g Dead_Stump_1
usemtl Dead_Stump_1SG
f 57/1/1 25/2/2 8/3/3 6/4/4 56/5/5
f 59/6/6 77/7/7 73/8/8 76/9/9 58/10/10
f 38/11/11 17/12/12 18/13/13 40/14/14
f 18/15/15 41/16/16 43/17/17 19/18/18
f 42/19/19 19/18/20 20/20/21 44/21/22
f 16/22/23 53/23/24 51/24/25 14/25/26
f 46/26/27 21/27/28 22/28/29 48/29/30
f 22/30/31 49/31/32 51/32/33 23/33/34
f 50/34/35 23/33/36 24/35/37 52/36/38
f 24/37/39 53/38/40 39/39/41 17/12/42
f 17/12/43 39/39/44 41/40/45 18/13/46
f 19/18/47 42/19/48 40/41/49 18/15/50
f 19/18/51 43/17/52 45/42/53 20/20/54
f 21/27/55 46/26/56 44/43/57 20/44/58
f 21/27/59 47/45/60 49/46/61 22/28/62
f 23/33/63 50/34/64 48/47/65 22/30/66
f 23/33/67 51/32/68 53/48/69 24/35/70
f 17/12/71 38/11/72 52/49/73 24/37/74
f 74/50/75 4/51/76 2/52/77
f 2/53/78 39/54/79 53/23/80 16/22/81
f 15/55/82 52/56/83 38/57/84 1/58/85
f 13/59/86 50/60/87 52/56/88 15/55/89
f 3/61/90 40/62/91 42/63/92 5/64/93
f 7/65/94 44/66/95 46/67/96 9/68/97
f 11/69/98 48/70/99 50/60/100 13/59/101
f 26/71/102 30/72/103 29/73/104 28/74/105
f 28/75/106 29/76/107 31/77/108 25/78/109
f 27/79/110 32/80/111 30/81/112 26/82/113
f 25/78/114 31/77/115 32/83/116 27/84/117
f 30/72/118 34/85/119 33/86/120 29/73/121
f 29/73/122 33/86/123 35/87/124 31/88/125
f 32/80/126 36/89/127 34/90/128 30/81/129
f 31/91/130 35/92/131 36/89/132 32/80/133
f 35/87/134 33/86/135 37/93/136
f 37/94/137 34/90/138 36/89/139
f 37/94/140 36/89/141 35/92/142
f 37/93/143 33/86/144 34/85/145
f 68/95/146 55/96/147 54/97/148 67/98/149
f 56/5/150 6/4/151 74/99/152 55/100/153
f 63/101/154 57/1/155 56/5/156 5/102/157
f 58/103/158 26/104/159 28/105/160
f 65/106/161 59/6/162 58/10/163 62/107/164
f 60/108/165 75/109/166 77/110/167 59/111/168
f 15/112/169 61/113/170 60/108/171 13/114/172
f 54/97/173 2/115/174 16/116/175 61/117/176
f 55/96/177 74/118/178 2/115/179 54/97/180
f 55/100/181 68/119/182 69/120/183 56/5/184
f 57/121/185 63/122/186 9/123/187 58/103/188
f 59/111/189 65/124/190 64/125/191 60/108/192
f 61/113/193 16/126/194 14/127/195 60/108/196
f 61/117/197 70/128/198 67/98/199 54/97/200
f 8/129/201 25/130/202 27/131/203
f 27/131/204 26/132/205 10/133/206
f 57/121/207 58/103/208 28/105/209
f 10/133/210 8/129/211 27/131/212
f 28/105/213 25/134/214 57/121/215
f 8/135/216 45/136/217 43/137/218 6/138/219
f 12/139/220 49/140/221 47/141/222 10/142/223
f 1/143/224 38/11/225 40/14/226 3/144/227
f 6/4/228 4/145/229 74/146/230
f 5/64/231 42/63/232 44/66/233 7/65/234
f 10/142/235 47/141/236 45/136/237 8/135/238
f 9/68/239 46/67/240 48/70/241 11/69/242
f 14/25/243 51/24/244 49/140/245 12/139/246
f 20/44/247 45/147/248 47/45/249 21/27/250
f 66/148/251 65/149/252 62/150/253 9/123/254
f 13/114/255 64/125/256 65/124/257 66/151/258
f 9/123/259 62/150/260 58/103/261
f 60/108/262 64/125/263 13/114/264
f 11/152/265 66/153/266 9/154/267
f 7/155/268 63/101/269 5/102/270
f 9/123/271 63/122/272 7/156/273
f 13/157/274 66/153/275 11/152/276
f 72/158/277 68/159/278 67/160/279 71/161/280
f 15/112/281 70/162/282 61/113/283
f 71/161/284 67/160/285 70/163/286 15/164/287
f 5/165/288 69/166/289 68/159/290 72/158/291
f 56/5/292 69/120/293 5/102/294
f 3/144/295 72/167/296 71/168/297 1/143/298
f 5/169/299 72/167/300 3/144/301
f 1/143/302 71/168/303 15/170/304
f 14/127/305 75/109/306 60/108/307
f 10/133/308 73/171/309 77/172/310 78/173/311
f 26/132/312 76/174/313 73/171/314 10/133/315
f 58/175/316 76/174/317 26/132/318
f 78/176/319 77/177/320 75/109/321 14/127/322
f 10/178/323 78/179/324 12/180/325
f 2/52/326 4/51/327 79/181/328
f 79/181/329 4/51/330 6/182/331
f 12/180/332 78/179/333 14/183/334
f 6/138/335 43/137/336 41/184/337 79/185/338
f 79/186/339 41/187/340 39/188/341 2/189/342
